# xmcd
#
# Track frame offsets:
#	150
#	18397
#	34000
#	57514
#	70585
#	92877
#	109725
#	123540
#	135637
#	147950
#	169545
#	185284
#
# Disc length: 2646 seconds
#
# Revision: 0
# Processed by: cddbd v1.5.1PL2 Copyright (c) Steve Scherf et al.
# Submitted via: EasyCDDAExtractor 9.0.0.1
#
DISCID=a30a540c
DTITLE=Musiacal JM - A Popozuda Da Vila
DYEAR=1900
DGENRE=
TTITLE0=Popozuda Da Vila
TTITLE1=Ela Não Larga A Minha Pista
TTITLE2=Pout- Pourri - JM
TTITLE3=E Da Pena De Mim
TTITLE4=O ultimo Baile
TTITLE5=Vi Ela No Ratinho
TTITLE6=Ex-Namorarda
TTITLE7=E Dentro Do Salão
TTITLE8=Foi Tudo Mentira
TTITLE9=Natal Pobre
TTITLE10=De 15 A 30
TTITLE11=Valsa Dos 15 Anos
EXTD=
EXTT0=
EXTT1=
EXTT2=
EXTT3=
EXTT4=
EXTT5=
EXTT6=
EXTT7=
EXTT8=
EXTT9=
EXTT10=
EXTT11=
PLAYORDER=
